<?xml version="1.0" standalone="no"?>
<!DOCTYPE svg PUBLIC "-//W3C//DTD SVG 20010904//EN"
 "http://www.w3.org/TR/2001/REC-SVG-20010904/DTD/svg10.dtd">
<svg version="1.0" xmlns="http://www.w3.org/2000/svg"
 width="100.000000pt" height="100.000000pt" viewBox="0 0 100.000000 100.000000"
 preserveAspectRatio="xMidYMid meet">

<g transform="translate(0.000000,100.000000) scale(0.100000,-0.100000)"
fill="#000000" stroke="none">
<path d="M284 931 c-34 -15 -64 -60 -64 -98 0 -25 10 -44 41 -78 23 -25 54
-48 68 -52 14 -3 45 -23 68 -44 l43 -39 -190 0 -190 0 0 -260 0 -260 440 0
440 0 0 260 0 260 -153 0 c-141 0 -155 2 -172 20 -17 19 -17 21 -1 39 9 10 31
21 48 25 45 9 118 85 118 124 0 64 -44 112 -103 112 -48 0 -137 -89 -137 -137
0 -6 -9 -18 -20 -28 -19 -17 -21 -17 -39 -1 -11 10 -23 30 -26 45 -8 37 -83
109 -120 116 -17 2 -40 0 -51 -4z m97 -70 c23 -23 39 -48 39 -62 0 -17 45 -69
160 -184 152 -153 160 -163 160 -201 l0 -39 -183 183 c-111 111 -190 182 -202
182 -27 0 -95 69 -95 97 0 29 33 63 61 63 12 0 39 -17 60 -39z m337 23 c34
-23 28 -62 -15 -106 -20 -21 -46 -38 -57 -38 -11 0 -32 -12 -48 -27 -27 -26
-28 -26 -48 -8 l-20 18 25 27 c14 14 25 37 25 49 0 28 70 101 97 101 10 0 29
-7 41 -16z m-578 -312 c0 -10 -22 -32 -32 -32 -4 0 -8 9 -8 20 0 13 7 20 20
20 11 0 20 -4 20 -8z m340 -1 c0 -5 -15 -14 -33 -20 -68 -23 -127 -111 -127
-191 0 -80 59 -168 127 -191 64 -21 33 -29 -112 -29 l-144 0 -16 30 c-8 16
-29 37 -45 45 l-30 16 0 129 0 129 30 16 c16 8 37 29 45 45 l16 30 144 0 c82
0 145 -4 145 -9z m345 -21 c8 -16 29 -37 45 -45 l30 -16 0 -129 0 -129 -30
-16 c-16 -8 -37 -29 -45 -45 l-16 -30 -144 0 c-145 0 -176 8 -112 29 65 22
127 111 127 183 l0 32 39 -38 c22 -21 44 -35 50 -32 14 9 14 116 1 150 -5 14
-28 46 -51 71 l-42 45 66 0 c64 0 67 -1 82 -30z m75 10 c0 -23 -10 -26 -28 -8
-18 18 -15 28 8 28 13 0 20 -7 20 -20z m-400 -100 c14 0 20 8 22 31 l3 31 43
-32 c73 -52 91 -129 50 -210 -14 -27 -36 -50 -58 -62 l-35 -18 -3 30 c-5 42
-39 42 -44 0 l-3 -30 -35 18 c-42 22 -80 90 -80 142 0 52 38 120 80 142 l35
18 3 -30 c2 -22 9 -30 22 -30z m-376 -286 c23 -9 20 -34 -4 -34 -13 0 -20 7
-20 20 0 22 1 23 24 14z m776 -14 c0 -13 -7 -20 -20 -20 -19 0 -27 20 -13 33
13 14 33 6 33 -13z"/>
<path d="M312 848 c-7 -7 -12 -17 -12 -23 0 -19 37 -47 57 -43 26 5 27 33 2
57 -26 24 -31 25 -47 9z"/>
<path d="M487 674 c-14 -15 -6 -34 14 -34 14 0 19 5 17 17 -3 18 -20 27 -31
17z"/>
<path d="M641 839 c-26 -25 -24 -53 5 -57 28 -4 61 34 48 55 -16 25 -28 25
-53 2z"/>
<path d="M480 360 c0 -53 2 -60 20 -60 18 0 20 7 20 60 0 53 -2 60 -20 60 -18
0 -20 -7 -20 -60z"/>
</g>
</svg>
